# xmcd
#
# Track frame offsets: 
#        150
#        13817
#        26727
#        39402
#        53550
#        67115
#        81970
#        95360
#        106457
#        120230
#        134917
#
# Disc length: 1988 seconds
#
# Revision: 1
# Processed by: cddbd v1.5.2PL0 Copyright (c) Steve Scherf et al.
# Submitted via: ExactAudioCopy v0.99pb3
#
DISCID=9307c20b
DTITLE=Henry Mancini - Mancini Country
DYEAR=1900
DGENRE=Country
TTITLE0=Let It Be Me
TTITLE1=Last Date
TTITLE2=Almost Persuaded
TTITLE3=Take Me To Your World
TTITLE4=Release Me
TTITLE5=You Don't Know Me
TTITLE6=Phone Call To The Past
TTITLE7=I Can't Stop Loving You
TTITLE8=Make The World Go Away
TTITLE9=Stand By Your Man
TTITLE10=The End Of The World
EXTD=
EXTT0=
EXTT1=
EXTT2=
EXTT3=
EXTT4=
EXTT5=
EXTT6=
EXTT7=
EXTT8=
EXTT9=
EXTT10=
PLAYORDER=
